<svg xmlns="http://www.w3.org/2000/svg" xmlns:xlink="http://www.w3.org/1999/xlink" xmlns:fi="http://pattern.flaticon.com/" x="0" y="0" width="700" height="350" viewBox="0 0 700 350"><rect x="0px" y="0px" width="100%" height="100%" opacity="1" fill="#f1f1f1"/><defs><g transform="matrix(0.1171875 0 0 0.1171875 147 268)" id="L1_5"><path d="M306,83c-5.52,0-10,4.48-10,10s4.48,10,10,10c5.52,0,10-4.48,10-10S311.52,83,306,83z" fill="#e8e8e8"/><path d="M206,83c-5.52,0-10,4.48-10,10s4.48,10,10,10s10-4.48,10-10S211.52,83,206,83z" fill="#e8e8e8"/><path d="M473.123,298.882C481.706,286,486,269.927,486,256c0-20.996-9.327-40.503-25.332-53.731    C464.21,193.805,466,185.002,466,176c0-27.855-16.256-53.803-40.425-65.92c3.667-30.414-16.151-58.292-45.52-65.403    C368.56,18.104,342.975,0,316,0c-25.11,0-47.631,14.646-60,36.016C243.63,14.646,221.109,0,196,0    c-26.977,0-52.562,18.104-64.055,44.678c-29.545,7.156-49.177,35.173-45.52,65.402C62.257,122.196,46,148.145,46,176    c0,9.002,1.79,17.805,5.332,26.269C35.327,215.498,26,235.004,26,256c0,14,4.33,30.052,12.877,42.881    C30.525,310.671,26,324.644,26,339c0,18.616,7.548,36.35,20.899,49.518C40.035,430.01,73.125,472,116,472    c0.31,0,0.615-0.005,0.914-0.014C131.129,496.508,157.515,512,186,512c29.688,0,56.216-17.82,70-43.494    C269.784,494.18,296.312,512,326,512c28.485,0,54.871-15.492,69.086-40.014c0.3,0.009,0.604,0.014,0.914,0.014    c37.944,0,70-33.43,70-73c0-3.369-0.296-6.834-0.899-10.482C478.452,375.35,486,357.617,486,339    C486,324.644,481.475,310.671,473.123,298.882z M246,151.381c-5.888-3.415-12.717-5.381-20-5.381c-5.523,0-10,4.477-10,10    s4.477,10,10,10c11.028,0,20,8.972,20,20v190.169C231.329,359.528,209.877,349,186,349c-5.523,0-10,4.477-10,10s4.477,10,10,10    c33.084,0,60,26.916,60,60c0,34.149-27.477,63-60,63c-23.152,0-44.465-13.691-54.299-34.88c-1.813-3.905-5.919-6.208-10.2-5.726    c-0.707,0.081-1.41,0.175-2.113,0.271c-28.46,3.892-60.51-28.335-51.834-64.387c0.891-3.703-0.399-7.589-3.326-10.025    C52.644,367.614,46,353.671,46,339c0-9.071,2.565-17.948,7.338-25.732C65.332,323.098,80.251,329,96,329c5.523,0,10-4.477,10-10    s-4.477-10-10-10c-27.139,0-50-24.77-50-53c0-17.125,8.729-32.879,23.352-42.142c4.505-2.854,5.978-8.741,3.347-13.38    C68.254,192.639,66,184.403,66,176c0-26.99,22.002-53,50-53c26.636,0,50,24.767,50,53c0,5.523,4.477,10,10,10s10-4.477,10-10    c0-39.57-32.056-73-70-73c-3.348,0-6.678,0.271-9.975,0.784C106.02,103.521,106,103.265,106,103c0-22.317,18.117-40,40-40    c10.682,0,20.73,4.161,28.292,11.715c3.907,3.903,10.238,3.899,14.142-0.007c3.903-3.908,3.9-10.239-0.007-14.142    c-9.123-9.113-20.662-14.925-33.167-16.851C164.079,30.624,178.744,20,196,20c26.636,0,50,24.766,50,53V151.381z M416,329    c15.75,0,30.669-5.903,42.663-15.729C463.435,321.054,466,329.93,466,339c0,14.671-6.644,28.614-18.227,38.253    c-2.928,2.436-4.217,6.323-3.326,10.025c1.06,4.403,1.553,8.128,1.553,11.721c0,31.04-28.075,56.126-53.387,52.666    c-0.703-0.096-1.407-0.191-2.114-0.271c-4.287-0.485-8.388,1.821-10.199,5.726C370.466,478.309,349.151,492,326,492    c-32.523,0-60-28.851-60-63c0-33.084,26.916-60,60-60c5.522,0,10-4.477,10-10s-4.478-10-10-10c-23.877,0-45.329,10.528-60,27.169    V186c0-11.028,8.972-20,20-20c5.522,0,10-4.477,10-10s-4.478-10-10-10c-7.283,0-14.112,1.966-20,5.381V73    c0-28.234,23.364-53,50-53c17.256,0,31.92,10.624,40.739,23.714c-12.504,1.926-24.042,7.738-33.166,16.851    c-3.908,3.903-3.912,10.234-0.009,14.142c3.903,3.908,10.236,3.911,14.142,0.008C345.271,67.161,355.318,63,366,63    c21.993,0,40,17.787,40,40c0,0.264-0.02,0.521-0.025,0.784C402.678,103.271,399.348,103,396,103c-37.944,0-70,33.43-70,73    c0,5.523,4.478,10,10,10c5.522,0,10-4.477,10-10c0-28.233,23.364-53,50-53c27.982,0,50,25.997,50,53    c0,8.403-2.254,16.639-6.699,24.478c-2.63,4.639-1.157,10.526,3.348,13.38C457.271,223.121,466,238.875,466,256    c0,28.331-22.941,53-50,53c-5.522,0-10,4.477-10,10S410.478,329,416,329z" fill="#e8e8e8"/><path d="M223.453,214.053c-3.682-4.116-10.003-4.468-14.12-0.786C177.265,241.952,126,219.027,126,176c0-5.523-4.477-10-10-10    s-10,4.477-10,10c0,34.715,25.407,63.595,58.6,69.057C160.75,257.185,149.386,266,136,266c-5.523,0-10,4.477-10,10s4.477,10,10,10    c24.357,0,44.69-17.51,49.102-40.602c13.907-1.819,26.996-7.77,37.565-17.225C226.783,224.491,227.135,218.169,223.453,214.053z" fill="#e8e8e8"/><path d="M116,389c-5.523,0-10,4.477-10,10s4.477,10,10,10c26.636,0,50,24.767,50,53c0,5.523,4.477,10,10,10s10-4.477,10-10    C186,422.43,153.944,389,116,389z" fill="#e8e8e8"/><path d="M196,309c-33.886,0-62.98,18.585-78.3,45.608c-2.723,4.805-1.036,10.908,3.768,13.631    c4.805,2.723,10.907,1.037,13.631-3.768C147.034,343.415,169.68,329,196,329c5.523,0,10-4.477,10-10S201.523,309,196,309z" fill="#e8e8e8"/><path d="M376,266c-13.386,0-24.75-8.815-28.6-20.943C380.593,239.595,406,210.715,406,176c0-5.523-4.478-10-10-10    c-5.522,0-10,4.477-10,10c0,27.57-22.43,50-50,50c-12.316,0-24.153-4.522-33.333-12.733c-4.115-3.682-10.438-3.331-14.12,0.786    c-3.683,4.116-3.33,10.438,0.786,14.12c10.569,9.455,23.659,15.406,37.565,17.225C331.31,268.49,351.643,286,376,286    c5.522,0,10-4.477,10-10S381.522,266,376,266z" fill="#e8e8e8"/><path d="M396,389c-37.944,0-70,33.43-70,73c0,5.523,4.478,10,10,10c5.522,0,10-4.477,10-10c0-28.233,23.364-53,50-53    c5.522,0,10-4.477,10-10S401.522,389,396,389z" fill="#e8e8e8"/><path d="M394.3,354.609C379.018,327.65,349.964,309,316,309c-5.522,0-10,4.477-10,10s4.478,10,10,10    c26.301,0,48.964,14.411,60.899,35.471c2.727,4.811,8.834,6.489,13.631,3.769C395.335,365.517,397.022,359.414,394.3,354.609z" fill="#e8e8e8"/></g><path d="M486.554,186.811c-1.6-4.9-5.8-8.4-10.9-9.2l-152-21.6l-68.4-137.5c-2.3-4.6-7-7.5-12.1-7.5l0,0c-5.1,0-9.8,2.9-12.1,7.6   l-67.5,137.9l-152,22.6c-5.1,0.8-9.3,4.3-10.9,9.2s-0.2,10.3,3.5,13.8l110.3,106.9l-25.5,151.4c-0.9,5.1,1.2,10.2,5.4,13.2   c2.3,1.7,5.1,2.6,7.9,2.6c2.2,0,4.3-0.5,6.3-1.6l135.7-71.9l136.1,71.1c2,1,4.1,1.5,6.2,1.5l0,0c7.4,0,13.5-6.1,13.5-13.5   c0-1.1-0.1-2.1-0.4-3.1l-26.3-150.5l109.6-107.5C486.854,197.111,488.154,191.711,486.554,186.811z M349.554,293.911   c-3.2,3.1-4.6,7.6-3.8,12l22.9,131.3l-118.2-61.7c-3.9-2.1-8.6-2-12.6,0l-117.8,62.4l22.1-131.5c0.7-4.4-0.7-8.8-3.9-11.9   l-95.6-92.8l131.9-19.6c4.4-0.7,8.2-3.4,10.1-7.4l58.6-119.7l59.4,119.4c2,4,5.8,6.7,10.2,7.4l132,18.8L349.554,293.911z" transform="matrix(0.1231471449136734 0 0 0.1231471449136734 15 14.000004660109312)" id="L1_6" fill="#e8e8e8"/><path d="M 497 36.953125 L 431.296875 36.953125 C 431.535156 29.675781 431.667969 22.355469 431.667969 15 C 431.667969 6.714844 424.949219 0 416.667969 0 L 95.332031 0 C 87.050781 0 80.332031 6.714844 80.332031 15 C 80.332031 22.355469 80.464844 29.675781 80.703125 36.953125 L 15 36.953125 C 6.714844 36.953125 0 43.667969 0 51.953125 C 0 119.164062 17.566406 182.574219 49.460938 230.507812 C 80.988281 277.894531 122.984375 305.074219 168.351562 307.71875 C 178.636719 318.910156 189.507812 328.035156 200.832031 334.996094 L 200.832031 401.664062 L 175.667969 401.664062 C 145.246094 401.664062 120.5 426.414062 120.5 456.832031 L 120.5 481.996094 L 119.433594 481.996094 C 111.148438 481.996094 104.433594 488.714844 104.433594 496.996094 C 104.433594 505.28125 111.148438 511.996094 119.433594 511.996094 L 392.566406 511.996094 C 400.851562 511.996094 407.566406 505.28125 407.566406 496.996094 C 407.566406 488.714844 400.851562 481.996094 392.566406 481.996094 L 391.5 481.996094 L 391.5 456.832031 C 391.5 426.414062 366.753906 401.664062 336.332031 401.664062 L 311.167969 401.664062 L 311.167969 334.996094 C 322.492188 328.039062 333.367188 318.910156 343.652344 307.71875 C 389.015625 305.074219 431.011719 277.894531 462.542969 230.507812 C 494.4375 182.574219 512 119.164062 512 51.953125 C 512 43.667969 505.285156 36.953125 497 36.953125 Z M 74.4375 213.890625 C 48.128906 174.355469 32.671875 122.644531 30.316406 66.953125 L 82.378906 66.953125 C 87.789062 135.414062 103.859375 198.695312 128.976562 248.925781 C 132.976562 256.925781 137.160156 264.484375 141.5 271.601562 C 116.550781 262.179688 93.460938 242.484375 74.4375 213.890625 Z M 361.5 456.832031 L 361.5 482 L 150.5 482 L 150.5 456.832031 C 150.5 442.957031 161.789062 431.664062 175.667969 431.664062 L 336.332031 431.664062 C 350.210938 431.664062 361.5 442.957031 361.5 456.832031 Z M 281.167969 401.664062 L 230.832031 401.664062 L 230.832031 348.03125 C 239.078125 350.203125 247.480469 351.332031 256 351.332031 C 264.519531 351.332031 272.921875 350.203125 281.167969 348.03125 Z M 290.457031 312.34375 C 289.78125 312.621094 289.132812 312.957031 288.511719 313.328125 C 277.910156 318.601562 267.015625 321.332031 256 321.332031 C 244.988281 321.332031 234.097656 318.601562 223.5 313.335938 C 222.871094 312.957031 222.21875 312.621094 221.535156 312.335938 C 209.773438 306.117188 198.394531 296.726562 187.632812 284.386719 C 187.066406 283.578125 186.429688 282.832031 185.722656 282.152344 C 175.039062 269.46875 164.988281 253.867188 155.808594 235.507812 C 128.242188 180.378906 112.320312 107.890625 110.507812 30 L 401.492188 30 C 399.675781 107.890625 383.753906 180.382812 356.191406 235.507812 C 347.011719 253.867188 336.960938 269.46875 326.28125 282.152344 C 325.570312 282.832031 324.925781 283.582031 324.363281 284.390625 C 313.601562 296.734375 302.21875 306.121094 290.457031 312.34375 Z M 437.5625 213.890625 C 418.539062 242.484375 395.449219 262.179688 370.5 271.601562 C 374.839844 264.484375 379.023438 256.925781 383.023438 248.925781 C 408.140625 198.695312 424.207031 135.414062 429.621094 66.953125 L 481.683594 66.953125 C 479.328125 122.644531 463.871094 174.355469 437.5625 213.890625 Z M 437.5625 213.890625 " transform="matrix(0.11718727648258209 0 0 0.11718727648258209 -27 197.00000007324218)" fill="#e8e8e8" fill-opacity="1" stroke="none" id="L1_7"/><g transform="matrix(0.11718658357858658 0 0 0.11718658357858658 204.9999958515491 94)" id="L1_9"><path d="M291.057,242.811c1.51,2.953,4.514,4.659,7.62,4.659c1.297,0,2.628-0.299,3.866-0.93     c0.503-0.256,50.731-25.771,75.503-33.596c4.489-1.425,6.98-6.221,5.555-10.709c-1.417-4.489-6.178-6.989-10.709-5.572     c-26.095,8.252-75.981,33.596-78.097,34.671C290.596,233.467,288.924,238.605,291.057,242.811z" fill="#e8e8e8"/><path d="M298.677,145.071c1.297,0,2.628-0.299,3.866-0.93c0.503-0.256,50.731-25.771,75.503-33.596     c4.489-1.425,6.98-6.221,5.555-10.709c-1.417-4.489-6.178-6.989-10.709-5.572c-26.095,8.252-75.981,33.596-78.097,34.671     c-4.198,2.133-5.871,7.27-3.738,11.477C292.567,143.364,295.571,145.071,298.677,145.071z" fill="#e8e8e8"/><path d="M503.469,128.004c-4.719,0-8.533,3.823-8.533,8.533v332.8c0,14.114-11.486,25.6-25.6,25.6h-204.8v-19.635     c12.442-4.352,44.851-14.498,76.8-14.498c74.334,0,124.809,16.461,125.312,16.631c2.568,0.853,5.436,0.427,7.68-1.178     c2.227-1.604,3.541-4.181,3.541-6.921V93.871c0-4.002-2.773-7.467-6.682-8.329c0,0-6.69-1.493-18.125-3.593     c-4.617-0.853-9.079,2.219-9.933,6.844c-0.853,4.642,2.21,9.088,6.844,9.941c4.361,0.802,8.013,1.51,10.829,2.074v357.188     c-19.337-5.069-62.276-14.259-119.467-14.259c-37.18,0-73.702,12.211-85.001,16.35c-10.044-4.437-40.405-16.35-77.133-16.35     c-58.778,0-107.196,9.694-128,14.618V100.475c17.041-4.19,67.371-15.138,128-15.138c31.113,0,57.796,9.685,68.267,14.063v335.804     c0,3.072,1.655,5.914,4.326,7.424c2.671,1.519,5.965,1.476,8.602-0.111c0.845-0.503,85.393-51.004,160.435-76.015     c3.49-1.169,5.837-4.42,5.837-8.098V8.537c0-2.799-1.374-5.419-3.678-7.014c-2.287-1.596-5.222-1.963-7.859-0.981     C346.856,26.15,277.771,69.141,277.079,69.568c-3.994,2.5-5.214,7.765-2.714,11.759c2.492,3.994,7.757,5.214,11.759,2.714     c0.631-0.401,60.732-37.794,123.477-63.027v331.281c-58.249,20.241-119.066,53.291-145.067,68.087V93.871     c0-3.234-1.826-6.187-4.719-7.637c-1.468-0.725-36.437-17.963-80.614-17.963c-77.107,0-136.388,16.683-138.88,17.399     c-3.661,1.041-6.187,4.395-6.187,8.201v375.467c0,2.671,1.263,5.197,3.388,6.81c1.502,1.135,3.311,1.724,5.146,1.724     c0.785,0,1.57-0.111,2.338-0.333c0.589-0.162,59.597-16.734,134.195-16.734c31.198,0,57.856,9.711,68.267,14.071v20.062h-204.8     c-14.114,0-25.6-11.486-25.6-25.6v-332.8c0-4.71-3.823-8.533-8.533-8.533s-8.533,3.823-8.533,8.533v332.8     c0,23.526,19.14,42.667,42.667,42.667h426.667c23.526,0,42.667-19.14,42.667-42.667v-332.8     C512.002,131.827,508.188,128.004,503.469,128.004z" fill="#e8e8e8"/><path d="M291.057,191.611c1.51,2.953,4.514,4.659,7.62,4.659c1.297,0,2.628-0.299,3.866-0.93     c0.503-0.256,50.731-25.771,75.503-33.596c4.489-1.425,6.98-6.221,5.555-10.709c-1.417-4.489-6.178-6.989-10.709-5.572     c-26.095,8.252-75.981,33.596-78.097,34.671C290.596,182.267,288.924,187.405,291.057,191.611z" fill="#e8e8e8"/><path d="M291.057,294.011c1.51,2.953,4.514,4.659,7.62,4.659c1.297,0,2.628-0.299,3.866-0.93     c0.503-0.256,50.731-25.771,75.503-33.596c4.489-1.425,6.98-6.221,5.555-10.709c-1.417-4.489-6.178-6.989-10.709-5.572     c-26.095,8.252-75.981,33.596-78.097,34.671C290.596,284.667,288.924,289.805,291.057,294.011z" fill="#e8e8e8"/><path d="M206.748,158.366c-52.693-12.365-112.572,3.388-115.089,4.062c-4.548,1.22-7.253,5.896-6.033,10.453     c1.024,3.814,4.471,6.323,8.235,6.323c0.734,0,1.476-0.094,2.219-0.29c0.572-0.162,58.223-15.326,106.778-3.934     c4.565,1.067,9.182-1.775,10.257-6.366C214.189,164.032,211.339,159.441,206.748,158.366z" fill="#e8e8e8"/><path d="M206.748,209.566c-52.693-12.356-112.572,3.388-115.089,4.062c-4.548,1.22-7.253,5.897-6.033,10.453     c1.024,3.814,4.471,6.323,8.235,6.323c0.734,0,1.476-0.094,2.219-0.29c0.572-0.162,58.223-15.326,106.778-3.934     c4.565,1.067,9.182-1.775,10.257-6.366C214.189,215.232,211.339,210.641,206.748,209.566z" fill="#e8e8e8"/><path d="M291.057,345.211c1.51,2.953,4.514,4.659,7.62,4.659c1.297,0,2.628-0.299,3.866-0.93     c0.503-0.256,50.731-25.771,75.503-33.596c4.489-1.425,6.98-6.221,5.555-10.709c-1.417-4.488-6.178-6.989-10.709-5.572     c-26.095,8.252-75.981,33.596-78.097,34.671C290.596,335.867,288.924,341.005,291.057,345.211z" fill="#e8e8e8"/><path d="M206.748,260.766c-52.693-12.356-112.572,3.379-115.089,4.062c-4.548,1.22-7.253,5.897-6.033,10.453     c1.024,3.814,4.471,6.332,8.235,6.332c0.734,0,1.476-0.102,2.219-0.299c0.572-0.162,58.223-15.326,106.778-3.934     c4.565,1.067,9.182-1.775,10.257-6.366C214.189,266.432,211.339,261.841,206.748,260.766z" fill="#e8e8e8"/><path d="M206.748,363.166c-52.693-12.365-112.572,3.388-115.089,4.062c-4.548,1.22-7.253,5.897-6.033,10.453     c1.024,3.814,4.471,6.332,8.235,6.332c0.734,0,1.476-0.102,2.219-0.299c0.572-0.162,58.223-15.326,106.778-3.934     c4.565,1.058,9.182-1.775,10.257-6.366C214.189,368.832,211.339,364.241,206.748,363.166z" fill="#e8e8e8"/><path d="M206.748,311.966c-52.693-12.365-112.572,3.379-115.089,4.062c-4.548,1.22-7.253,5.897-6.033,10.453     c1.024,3.814,4.471,6.332,8.235,6.332c0.734,0,1.476-0.102,2.219-0.299c0.572-0.162,58.223-15.326,106.778-3.934     c4.565,1.067,9.182-1.775,10.257-6.366C214.189,317.632,211.339,313.041,206.748,311.966z" fill="#e8e8e8"/></g></defs><g fi:class="KUsePattern"><pattern id="pattern_L1_5" width="350" height="350" patternUnits="userSpaceOnUse"><use xlink:href="#L1_5" x="-350" y="-350"/><use xlink:href="#L1_5" x="0" y="-350"/><use xlink:href="#L1_5" x="350" y="-350"/><use xlink:href="#L1_5" x="-350" y="0"/><use xlink:href="#L1_5" x="0" y="0"/><use xlink:href="#L1_5" x="350" y="0"/><use xlink:href="#L1_5" x="-350" y="350"/><use xlink:href="#L1_5" x="0" y="350"/><use xlink:href="#L1_5" x="350" y="350"/></pattern><rect x="0" y="0" width="100%" height="100%" fill="url(#pattern_L1_5)"/></g><g fi:class="KUsePattern"><pattern id="pattern_L1_6" width="350" height="350" patternUnits="userSpaceOnUse"><use xlink:href="#L1_6" x="-350" y="-350"/><use xlink:href="#L1_6" x="0" y="-350"/><use xlink:href="#L1_6" x="350" y="-350"/><use xlink:href="#L1_6" x="-350" y="0"/><use xlink:href="#L1_6" x="0" y="0"/><use xlink:href="#L1_6" x="350" y="0"/><use xlink:href="#L1_6" x="-350" y="350"/><use xlink:href="#L1_6" x="0" y="350"/><use xlink:href="#L1_6" x="350" y="350"/></pattern><rect x="0" y="0" width="100%" height="100%" fill="url(#pattern_L1_6)"/></g><g fi:class="KUsePattern"><pattern id="pattern_L1_7" width="350" height="350" patternUnits="userSpaceOnUse"><use xlink:href="#L1_7" x="-350" y="-350"/><use xlink:href="#L1_7" x="0" y="-350"/><use xlink:href="#L1_7" x="350" y="-350"/><use xlink:href="#L1_7" x="-350" y="0"/><use xlink:href="#L1_7" x="0" y="0"/><use xlink:href="#L1_7" x="350" y="0"/><use xlink:href="#L1_7" x="-350" y="350"/><use xlink:href="#L1_7" x="0" y="350"/><use xlink:href="#L1_7" x="350" y="350"/></pattern><rect x="0" y="0" width="100%" height="100%" fill="url(#pattern_L1_7)"/></g><g fi:class="KUsePattern"><pattern id="pattern_L1_9" width="350" height="350" patternUnits="userSpaceOnUse"><use xlink:href="#L1_9" x="-350" y="-350"/><use xlink:href="#L1_9" x="0" y="-350"/><use xlink:href="#L1_9" x="350" y="-350"/><use xlink:href="#L1_9" x="-350" y="0"/><use xlink:href="#L1_9" x="0" y="0"/><use xlink:href="#L1_9" x="350" y="0"/><use xlink:href="#L1_9" x="-350" y="350"/><use xlink:href="#L1_9" x="0" y="350"/><use xlink:href="#L1_9" x="350" y="350"/></pattern><rect x="0" y="0" width="100%" height="100%" fill="url(#pattern_L1_9)"/></g></svg>